<?xml version="1.0" standalone="no"?>
<!DOCTYPE svg PUBLIC "-//W3C//DTD SVG 20010904//EN"
 "http://www.w3.org/TR/2001/REC-SVG-20010904/DTD/svg10.dtd">
<svg version="1.0" xmlns="http://www.w3.org/2000/svg"
 width="314.000000pt" height="132.000000pt" viewBox="0 0 314.000000 132.000000"
 preserveAspectRatio="xMidYMid meet">
<metadata>
Created by potrace 1.16, written by Peter Selinger 2001-2019
</metadata>
<g transform="translate(0.000000,132.000000) scale(0.100000,-0.100000)"
fill="currentColor" stroke="none">
<path d="M1605 1311 c-13 -12 -87 -17 -103 -7 -7 4 -17 4 -24 0 -6 -4 -40 -8
-75 -9 -50 -1 -67 -6 -87 -24 -28 -26 -76 -29 -235 -12 -85 9 -131 4 -131 -14
0 -7 22 -46 36 -65 9 -11 7 -29 -6 -75 -17 -56 -60 -218 -132 -495 -17 -63
-32 -121 -35 -129 -3 -11 -7 -10 -16 5 -18 26 -61 140 -97 255 -17 54 -37 100
-45 103 -8 3 -12 12 -9 20 6 16 -14 61 -23 52 -4 -3 -12 -1 -19 4 -8 8 -16 6
-27 -5 -9 -8 -20 -15 -25 -15 -11 0 -52 -74 -52 -94 0 -7 -9 -24 -19 -38 -11
-13 -24 -42 -30 -65 -18 -65 -28 -59 -36 20 -4 39 -9 88 -11 107 -3 19 -7 111
-9 205 -2 116 -7 171 -15 173 -6 2 -22 15 -35 28 -29 29 -44 29 -159 4 -50
-11 -107 -20 -127 -20 -44 0 -67 -21 -46 -42 8 -7 19 -23 26 -36 6 -12 20 -22
31 -22 13 0 27 -14 41 -41 24 -48 25 -53 34 -219 3 -69 12 -172 20 -230 8 -58
20 -143 26 -190 6 -47 18 -117 25 -157 l13 -72 -35 -37 c-19 -21 -34 -43 -34
-50 0 -16 27 -37 38 -30 9 6 81 -15 130 -37 17 -8 29 -8 42 1 11 7 44 12 74
12 59 0 68 6 71 54 13 170 19 211 52 313 20 62 40 113 44 113 9 0 54 -94 63
-135 11 -45 47 -125 57 -125 4 0 16 -28 25 -61 10 -34 28 -74 41 -90 23 -27
27 -28 85 -22 50 5 63 3 73 -11 21 -28 41 -8 54 52 7 31 21 86 31 122 10 36
37 151 60 255 66 303 137 556 159 571 12 9 17 21 14 34 -5 19 0 20 65 20 l70
0 7 -102 c3 -57 9 -263 13 -459 l7 -357 -25 -9 c-17 -6 -35 -5 -58 4 -36 15
-72 4 -72 -22 0 -9 -10 -15 -24 -15 -33 0 -54 -26 -35 -44 26 -25 463 -87 491
-69 5 2 52 6 106 8 92 4 98 6 119 31 16 21 19 32 12 46 -12 22 -27 22 -53 3
-14 -10 -45 -15 -97 -15 l-78 0 6 508 c3 279 7 508 8 510 2 2 33 8 71 13 76
11 94 21 94 55 0 35 -28 44 -134 44 -71 0 -98 4 -110 15 -17 17 -38 19 -51 6z
m-79 -241 l-15 -55 0 72 c-1 49 3 73 12 76 18 6 20 -31 3 -93z m141 68 c-3 -7
-5 -2 -5 12 0 14 2 19 5 13 2 -7 2 -19 0 -25z m-66 -508 c-8 -137 -8 -129 -9
145 -1 160 2 308 6 330 11 60 14 -303 3 -475z m-514 448 c-3 -8 -6 -5 -6 6 -1
11 2 17 5 13 3 -3 4 -12 1 -19z m-780 -510 c-3 -8 -6 -5 -6 6 -1 11 2 17 5 13
3 -3 4 -12 1 -19z m1360 -210 c-2 -29 -3 -6 -3 52 0 58 1 81 3 53 2 -29 2 -77
0 -105z m-10 -165 c-2 -16 -4 -5 -4 22 0 28 2 40 4 28 2 -13 2 -35 0 -50z
m-57 -9 c0 -2 -7 -4 -15 -4 -8 0 -15 4 -15 10 0 5 7 7 15 4 8 -4 15 -8 15 -10z"/>
<path d="M2832 1253 c-16 -28 14 -62 60 -69 35 -6 39 -9 34 -30 -8 -30 -24
-153 -31 -239 -3 -38 -13 -133 -21 -210 -10 -82 -14 -174 -11 -223 4 -45 5
-82 3 -82 -2 0 -25 33 -52 73 -26 39 -67 97 -90 128 -43 57 -208 296 -292 426
-26 39 -57 76 -69 81 -15 8 -25 27 -34 67 l-13 57 -35 -6 c-23 -3 -43 0 -54 9
-44 32 -67 -20 -67 -152 0 -45 -4 -148 -10 -230 -5 -81 -12 -269 -14 -418 -3
-148 -5 -271 -5 -272 -1 -2 -10 -3 -21 -3 -11 0 -20 -4 -20 -10 0 -5 -12 -10
-26 -10 -22 0 -25 -4 -22 -27 2 -22 9 -29 31 -31 15 -2 27 -7 27 -12 0 -4 12
-11 28 -15 15 -3 35 -13 44 -22 10 -9 22 -12 30 -7 7 4 71 9 143 11 153 4 175
8 175 31 0 36 -16 46 -74 43 l-56 -2 5 38 c27 193 20 561 -14 698 -11 44 -19
81 -18 82 1 1 57 -76 123 -170 125 -177 201 -297 364 -569 77 -129 98 -158
116 -158 13 0 26 5 29 10 12 19 35 10 41 -16 8 -31 47 -30 52 1 2 11 11 28 20
38 12 13 13 23 6 35 -15 25 -1 879 17 1012 5 43 6 88 1 105 -8 27 -13 30 -78
41 -108 19 -211 18 -222 -3z m-528 -313 c6 -8 -3 -3 -21 10 -18 14 -32 33 -32
44 -1 19 6 11 53 -54z m616 -437 c0 -24 -3 -33 -9 -25 -7 12 -4 62 5 62 2 0 4
-17 4 -37z"/>
</g>
</svg>
