<?xml version="1.0" standalone="no"?>
<!DOCTYPE svg PUBLIC "-//W3C//DTD SVG 20010904//EN"
 "http://www.w3.org/TR/2001/REC-SVG-20010904/DTD/svg10.dtd">
<svg version="1.0" xmlns="http://www.w3.org/2000/svg"
 width="564.000000pt" height="138.000000pt" viewBox="0 0 564.000000 138.000000"
 preserveAspectRatio="xMidYMid meet">
<metadata>
Created by potrace 1.16, written by Peter Selinger 2001-2019
</metadata>
<g transform="translate(0.000000,138.000000) scale(0.100000,-0.100000)"
fill="currentColor" stroke="none">
<path d="M2035 1370 c-22 -4 -80 -11 -130 -14 -49 -3 -119 -10 -154 -15 -35
-6 -76 -8 -91 -5 -17 4 -31 0 -39 -10 -8 -9 -21 -16 -31 -16 -9 0 -33 -11 -53
-24 -35 -24 -36 -24 -49 -5 -18 27 -45 16 -63 -27 -22 -54 -35 -41 -35 36 0
68 -1 70 -25 70 -19 0 -26 -7 -33 -32 -7 -29 -12 -32 -47 -35 -48 -3 -74 -25
-55 -47 10 -13 10 -26 1 -62 -17 -68 -41 -207 -52 -304 -9 -81 -35 -239 -45
-269 -3 -8 -30 37 -60 100 -85 177 -98 201 -114 206 -8 2 -28 11 -43 20 -35
18 -51 7 -68 -45 -6 -20 -17 -41 -23 -47 -21 -16 -95 -181 -142 -315 -25 -69
-47 -131 -50 -139 -2 -8 -7 -12 -9 -9 -3 2 -20 83 -40 179 -31 154 -60 274
-135 554 -15 55 -19 95 -15 127 8 71 5 71 -205 21 -114 -27 -138 -37 -158 -65
-7 -10 -21 -18 -31 -18 -41 0 -55 -46 -16 -56 14 -3 25 -12 25 -20 0 -22 42
-26 83 -9 21 9 42 13 47 10 5 -3 14 -31 20 -63 20 -99 60 -253 89 -347 16 -49
39 -135 51 -190 13 -55 34 -140 47 -190 13 -49 30 -115 37 -146 7 -31 16 -61
21 -68 4 -8 -1 -18 -14 -27 -39 -27 -24 -54 33 -61 60 -8 281 -1 294 9 7 6 20
36 28 67 9 31 31 101 49 156 18 55 45 154 60 219 l29 119 18 -67 c10 -37 30
-95 45 -129 41 -99 93 -250 87 -259 -3 -4 1 -17 9 -29 8 -11 13 -28 10 -38 -7
-28 19 -41 99 -47 90 -8 137 0 168 26 21 18 26 42 52 248 15 125 49 328 74
452 41 199 73 360 90 456 l6 32 60 -2 c35 -2 63 -8 68 -15 20 -33 32 -257 36
-638 l4 -412 -53 -3 c-42 -2 -54 -7 -62 -25 -5 -13 -20 -23 -35 -25 -26 -3
-41 -36 -18 -42 7 -2 31 -9 52 -16 53 -17 218 -40 291 -40 71 0 225 26 272 45
19 8 33 21 33 31 0 10 5 33 12 51 10 28 10 36 -2 43 -8 5 -21 5 -29 1 -9 -5
-44 -11 -78 -14 l-63 -5 0 61 c0 125 -21 587 -35 757 -8 96 -15 194 -15 218
l0 42 48 1 c68 1 115 8 126 19 6 6 25 10 43 10 35 0 51 19 36 42 -4 7 -8 24
-8 38 0 25 -1 25 -95 27 -52 0 -113 -2 -135 -7z m-85 -202 c0 -74 -5 -73 -14
5 -4 36 -2 57 4 57 6 0 10 -27 10 -62z m-624 -99 c-9 -19 -14 -25 -12 -14 3
11 8 40 13 65 7 41 8 42 11 14 2 -17 -4 -47 -12 -65z m612 -411 c7 -106 12
-262 12 -345 0 -139 -2 -153 -17 -153 -17 0 -18 23 -18 345 0 190 3 345 6 345
3 0 11 -87 17 -192z m-106 -436 c2 -34 0 -62 -4 -62 -5 0 -7 42 -6 93 1 94 5
82 10 -31z"/>
<path d="M2386 1349 c-3 -13 -7 -64 -11 -114 -3 -49 -14 -119 -25 -155 -22
-77 -37 -291 -46 -661 -5 -234 -4 -257 11 -273 10 -9 23 -15 30 -12 8 3 16 -2
19 -10 7 -17 40 -18 53 -2 15 19 28 345 27 693 0 354 -8 348 88 66 93 -273
279 -629 367 -704 25 -20 57 -22 64 -4 4 10 6 10 6 0 1 -19 51 -16 51 2 0 8 9
15 19 15 10 0 22 7 25 15 6 17 -10 450 -20 555 -4 36 -10 162 -13 280 -5 194
-8 215 -24 218 -11 2 -20 -5 -26 -20 -8 -20 -10 -21 -16 -5 -8 20 -43 23 -51
3 -3 -8 2 -119 10 -247 25 -364 36 -551 36 -584 0 -29 0 -29 -15 -9 -56 81
-185 374 -274 622 -92 256 -96 265 -125 258 -19 -5 -28 1 -52 37 -15 23 -28
43 -29 44 0 0 -17 4 -37 8 -33 6 -38 5 -42 -16z m-19 -1071 c-2 -13 -4 -5 -4
17 -1 22 1 32 4 23 2 -10 2 -28 0 -40z m600 -55 c-3 -10 -5 -4 -5 12 0 17 2
24 5 18 2 -7 2 -21 0 -30z"/>
<path d="M4014 1282 c-7 -4 -14 -18 -15 -31 -4 -23 -16 -34 -49 -44 -26 -8
-19 -472 9 -677 12 -85 26 -173 32 -195 6 -22 16 -78 22 -125 10 -69 17 -91
39 -114 32 -35 63 -30 56 9 -5 23 -2 25 28 25 19 0 34 -4 34 -8 0 -5 6 -17 14
-27 12 -17 16 -17 31 -5 13 11 59 14 208 14 208 1 241 8 235 49 -4 30 -32 34
-234 36 l-172 1 -6 33 c-9 48 -36 334 -36 382 l0 40 147 -3 c191 -5 270 3 283
28 8 15 6 21 -11 31 -18 9 -250 27 -386 29 l-33 0 0 128 c0 70 3 156 6 192 l6
65 144 -3 c157 -4 174 1 174 51 0 29 -16 37 -72 37 -24 0 -49 8 -64 19 -23 18
-37 19 -150 15 -69 -3 -137 -9 -151 -15 -30 -11 -34 -8 -49 34 -11 33 -22 41
-40 29z"/>
<path d="M4840 1278 c-44 -9 -74 -33 -64 -49 3 -5 -5 -9 -18 -9 -34 0 -88 -36
-88 -60 0 -11 9 -25 20 -32 18 -12 20 -24 20 -147 0 -221 21 -452 67 -751 12
-77 21 -110 36 -122 10 -10 23 -15 28 -12 5 3 15 2 22 -3 21 -13 75 -12 87 2
9 11 9 32 1 82 -21 135 -39 378 -30 388 3 3 35 -25 70 -62 109 -115 161 -162
232 -209 59 -40 94 -57 212 -105 11 -4 38 -13 60 -20 22 -6 55 -20 72 -31 34
-20 73 -17 73 6 0 17 -45 76 -69 90 -10 6 -59 33 -107 61 -49 27 -107 66 -129
85 -22 20 -71 62 -110 92 -38 31 -85 71 -103 91 l-33 34 68 13 c100 19 171 47
231 93 63 48 74 65 84 137 10 68 10 57 -1 165 -15 151 -59 230 -111 197 -20
-12 -50 -7 -50 10 0 15 -82 45 -126 47 -22 0 -60 8 -84 16 -48 17 -188 19
-260 3z m108 -105 c-10 -2 -26 -2 -35 0 -10 3 -2 5 17 5 19 0 27 -2 18 -5z
m340 -18 c89 -38 109 -96 103 -302 -1 -21 -6 -33 -15 -33 -7 0 -19 -6 -25 -14
-17 -21 -313 -96 -378 -96 -56 0 -61 16 -65 223 -3 138 -1 186 8 183 15 -6
233 32 253 44 24 14 78 12 119 -5z"/>
<path d="M3773 1262 c-6 -4 -15 -31 -19 -60 -5 -42 -9 -50 -20 -41 -8 6 -21 9
-29 5 -13 -4 -15 -33 -15 -173 0 -92 5 -272 11 -398 14 -308 15 -308 -38 -209
-44 83 -92 208 -199 514 -91 260 -94 268 -112 275 -8 3 -23 -2 -33 -11 -11
-10 -19 -12 -19 -6 0 7 -9 12 -20 12 -13 0 -27 14 -40 40 -15 30 -26 40 -45
40 l-24 0 0 -525 c0 -509 1 -526 20 -538 10 -6 19 -18 19 -25 0 -8 9 -12 23
-10 21 3 22 8 25 103 4 101 -15 611 -24 653 -10 48 12 19 34 -45 13 -38 55
-135 94 -218 63 -134 143 -329 163 -395 19 -61 65 -138 87 -144 40 -10 58 -7
58 12 1 9 7 3 15 -16 11 -26 20 -33 37 -30 15 2 24 11 26 26 2 16 10 22 27 22
30 0 34 7 40 65 2 26 10 54 17 62 18 22 24 639 8 818 -17 190 -28 222 -67 197z"/>
</g>
</svg>
