<?xml version="1.0" standalone="no"?>
<!DOCTYPE svg PUBLIC "-//W3C//DTD SVG 20010904//EN"
 "http://www.w3.org/TR/2001/REC-SVG-20010904/DTD/svg10.dtd">
<svg version="1.0" xmlns="http://www.w3.org/2000/svg"
 width="321.000000pt" height="141.000000pt" viewBox="0 0 321.000000 141.000000"
 preserveAspectRatio="xMidYMid meet">
<metadata>
Created by potrace 1.16, written by Peter Selinger 2001-2019
</metadata>
<g transform="translate(0.000000,141.000000) scale(0.100000,-0.100000)"
fill="currentColor" stroke="none">
<path d="M250 1393 c-25 -7 -60 -11 -78 -9 -43 6 -155 -12 -164 -27 -9 -15 10
-37 33 -37 18 0 23 -10 20 -38 -2 -14 138 -238 216 -346 30 -41 41 -66 37 -81
-4 -17 2 -25 31 -41 64 -34 82 -74 89 -199 4 -60 11 -148 16 -195 5 -47 12
-133 15 -191 5 -101 5 -107 -15 -112 -13 -3 -20 -13 -20 -30 0 -21 7 -26 58
-41 32 -9 94 -16 137 -16 60 0 83 -4 98 -17 17 -16 20 -16 31 -2 6 9 30 20 53
23 58 10 73 56 17 56 -13 0 -24 5 -24 10 0 6 -6 10 -14 10 -20 0 -25 67 -32
396 -6 269 -5 281 13 286 11 3 33 34 53 74 18 38 53 99 77 136 41 64 123 251
123 282 0 8 10 16 23 18 14 2 22 10 22 22 0 29 -80 45 -227 46 -121 0 -127 -1
-133 -21 -4 -12 -3 -24 2 -28 5 -3 12 -14 16 -23 3 -9 17 -18 30 -20 l24 -3
-13 -64 c-15 -73 -56 -145 -120 -214 l-43 -47 -41 28 c-43 29 -72 73 -160 245
-38 73 -48 102 -41 115 6 12 4 23 -8 38 -23 29 -50 33 -101 17z"/>
<path d="M2215 1318 c-169 -25 -214 -43 -194 -79 6 -11 16 -18 23 -16 16 6 49
-19 53 -41 1 -9 5 -89 7 -177 3 -152 58 -592 86 -697 13 -48 114 -150 197
-198 56 -33 65 -36 119 -30 33 3 73 2 89 -1 49 -11 124 -10 191 2 50 9 72 19
113 52 27 23 65 51 83 62 23 14 50 51 90 125 55 100 58 109 58 176 0 39 -7
140 -15 225 -8 85 -16 220 -18 301 l-3 147 56 3 c51 3 55 5 55 28 0 21 -5 25
-35 28 -19 2 -43 12 -53 23 -18 20 -33 22 -102 19 -212 -10 -303 -21 -316 -36
-16 -20 3 -40 45 -48 32 -6 34 -9 45 -69 30 -173 39 -435 22 -682 -7 -97 -11
-116 -37 -157 -15 -26 -41 -53 -57 -59 -55 -23 -183 14 -192 56 -8 38 -58 320
-66 375 -5 30 -8 190 -8 355 l1 300 -28 12 c-33 14 -122 15 -209 1z"/>
<path d="M1392 1225 c-102 -48 -227 -162 -260 -239 -18 -41 -35 -239 -27 -316
3 -36 8 -107 11 -157 4 -66 14 -118 35 -180 25 -75 37 -94 92 -152 35 -36 72
-78 81 -93 41 -63 123 -85 246 -64 90 15 198 94 240 176 12 23 37 103 56 178
27 111 34 156 34 237 0 225 -67 441 -167 541 -88 89 -235 118 -341 69z m180
-182 c37 -43 68 -116 93 -218 25 -97 27 -122 22 -210 -7 -100 -29 -195 -68
-293 -24 -59 -42 -68 -117 -58 -64 8 -91 31 -132 110 -34 67 -34 70 -34 189 1
79 7 145 18 187 25 100 88 220 141 268 50 47 56 49 77 25z"/>
</g>
</svg>
