<?xml version="1.0" standalone="no"?>
<!DOCTYPE svg PUBLIC "-//W3C//DTD SVG 20010904//EN"
 "http://www.w3.org/TR/2001/REC-SVG-20010904/DTD/svg10.dtd">
<svg version="1.0" xmlns="http://www.w3.org/2000/svg"
 width="479.000000pt" height="293.000000pt" viewBox="0 0 479.000000 293.000000"
 preserveAspectRatio="xMidYMid meet">
<g transform="translate(0.000000,293.000000) scale(0.100000,-0.100000)"
fill="currentColor" stroke="none">
<path d="M2638 2885 c-17 -34 -28 -45 -45 -45 -15 0 -28 -10 -39 -32 -9 -18
-21 -35 -25 -38 -14 -9 -64 -127 -104 -245 -58 -170 -72 -207 -90 -250 l-17
-39 -23 54 c-12 30 -41 92 -63 137 -48 94 -82 180 -82 206 0 9 -4 17 -10 17
-5 0 -13 12 -16 28 -4 15 -15 46 -25 70 -16 37 -22 42 -50 42 -30 0 -31 -2
-27 -35 4 -34 -4 -46 -17 -25 -13 21 -45 10 -52 -17 -20 -71 -2 -1144 19
-1170 15 -19 36 -16 43 6 6 21 42 35 51 20 12 -20 42 -9 49 19 3 15 12 34 20
42 31 36 37 174 21 450 -9 146 -18 290 -21 320 -5 53 -4 52 29 -45 40 -119 73
-195 110 -253 24 -39 30 -42 69 -42 43 0 44 1 66 54 12 29 39 80 61 114 22 33
47 79 56 102 12 29 19 38 24 29 5 -8 13 -88 19 -179 6 -91 14 -203 17 -250 3
-47 9 -154 13 -237 7 -154 14 -182 45 -170 12 5 16 21 16 66 l0 59 25 -11 c18
-9 25 -20 25 -39 0 -23 4 -28 25 -28 32 0 37 19 38 169 1 66 4 117 7 114 3 -2
12 -84 20 -181 14 -169 16 -177 37 -180 18 -3 23 3 28 31 4 20 4 55 1 79 -3
23 -10 115 -16 203 -6 88 -15 201 -20 250 -6 50 -19 248 -30 440 -11 193 -22
369 -26 393 l-5 42 -55 0 -54 0 -22 -45z"/>
<path d="M3092 2898 c-7 -7 -12 -26 -12 -43 0 -49 -14 -51 -25 -3 -13 50 -36
61 -59 26 -8 -13 -19 -61 -25 -108 -17 -155 0 -775 29 -1045 5 -48 5 -84 -1
-90 -14 -15 -10 -28 20 -65 29 -34 30 -34 49 -16 26 23 82 14 82 -13 0 -9 5
-22 12 -29 14 -14 48 2 48 24 0 14 11 15 83 9 45 -5 98 -7 117 -7 56 2 132 2
169 -2 57 -4 80 46 26 60 -22 6 -23 6 -7 35 13 22 24 29 48 29 36 0 58 21 50
47 -5 17 -24 18 -251 18 l-245 0 0 248 0 247 128 -6 c158 -7 271 4 286 28 18
30 -6 39 -110 42 -54 2 -145 9 -201 16 l-102 13 -5 36 c-3 20 -8 100 -12 178
l-6 142 235 -6 c233 -6 235 -6 246 16 10 18 9 23 -12 32 -15 7 -23 17 -21 28
11 45 -42 60 -202 61 -119 0 -206 9 -199 19 9 16 -15 34 -44 33 -25 0 -34 5
-46 29 -17 32 -25 35 -43 17z"/>
<path d="M469 2821 c-24 -21 -71 -74 -104 -116 -33 -43 -78 -101 -100 -129
-173 -220 -274 -373 -260 -396 3 -5 15 -10 25 -10 22 0 18 22 54 -283 14 -120
31 -227 36 -238 14 -25 34 -24 52 3 l15 23 49 -23 c76 -35 240 -72 321 -72 65
0 73 -2 73 -19 0 -30 24 -44 42 -23 19 21 83 170 133 307 20 55 46 117 58 137
16 30 18 40 8 52 -7 8 -10 24 -6 36 4 12 1 27 -5 35 -10 12 -8 15 11 15 13 0
32 -7 42 -15 42 -31 65 26 29 73 -20 25 -81 38 -225 46 -79 4 -90 2 -107 -16
-27 -29 -10 -62 28 -55 20 4 124 -10 140 -18 9 -6 -55 -121 -97 -173 -27 -34
-54 -69 -58 -77 -7 -12 -29 -9 -143 15 -74 16 -153 30 -176 30 l-40 0 -13 116
c-12 111 -12 117 7 138 32 35 171 234 204 293 25 45 34 54 52 49 12 -3 53 -9
91 -12 90 -8 173 -47 177 -84 2 -19 9 -25 26 -24 12 0 22 -3 22 -8 0 -12 47
-28 64 -22 16 6 92 117 124 180 12 24 31 44 43 47 18 5 20 11 15 33 -5 20 -2
30 14 41 11 8 18 18 15 23 -3 5 4 25 16 44 17 29 19 39 9 51 -18 21 -28 19
-59 -15 l-27 -31 -90 11 c-49 5 -96 10 -104 11 -8 0 0 5 18 10 32 9 33 11 19
32 -13 20 -23 21 -173 25 -87 2 -160 7 -162 13 -7 19 -41 7 -83 -30z m-19
-141 c0 -5 -5 -10 -11 -10 -5 0 -7 5 -4 10 3 6 8 10 11 10 2 0 4 -4 4 -10z
m120 -80 c0 -5 -9 -10 -20 -10 -11 0 -20 5 -20 10 0 6 9 10 20 10 11 0 20 -4
20 -10z m290 -45 c-10 -12 -16 -13 -26 -4 -20 16 -18 19 12 19 22 0 25 -2 14
-15z m-485 -692 l40 -6 -29 -12 c-21 -9 -40 -10 -65 -3 -82 22 -44 37 54 21z
m150 -213 c7 -11 -35 -11 -80 0 -26 7 -23 8 22 9 28 0 55 -3 58 -9z"/>
<path d="M1580 2809 l0 -41 -122 3 c-68 2 -126 7 -129 12 -12 18 -54 -2 -66
-30 -6 -15 -31 -82 -56 -148 -24 -66 -75 -199 -112 -295 -37 -96 -93 -254
-125 -350 -111 -337 -115 -349 -102 -362 26 -26 45 0 94 135 20 53 16 22 -8
-68 -30 -112 -31 -155 -5 -155 23 0 34 13 56 72 12 34 23 47 41 51 20 3 22 1
14 -14 -23 -42 -5 -104 26 -92 18 7 72 177 130 413 26 103 50 193 54 200 6 10
18 10 53 1 25 -6 88 -11 139 -11 l94 0 18 -72 c11 -40 36 -126 57 -190 22 -64
39 -124 39 -134 0 -9 12 -68 27 -131 20 -86 32 -117 47 -125 33 -18 49 15 41
90 -4 43 -2 62 5 57 5 -3 10 -15 10 -25 0 -21 28 -40 48 -33 7 3 12 -4 12 -16
0 -22 15 -27 39 -12 17 11 18 8 -63 401 -105 514 -146 698 -191 853 -14 49
-20 57 -41 57 -21 0 -24 -4 -24 -41z m-102 -264 c2 -2 12 -58 23 -126 10 -68
21 -135 25 -148 5 -23 3 -23 -35 -17 -23 3 -72 16 -110 29 l-69 22 29 115 c16
63 32 121 34 128 4 10 17 11 52 6 27 -3 49 -8 51 -9z"/>
<path d="M3955 2678 c-2 -7 -6 -152 -9 -323 -3 -170 -9 -321 -12 -334 -7 -23
-7 -23 -20 8 -10 23 -20 31 -38 31 -26 0 -47 -37 -28 -49 13 -8 42 -67 42 -85
0 -26 31 -110 48 -128 8 -10 23 -18 33 -18 20 0 31 28 53 135 14 66 32 121 58
172 13 27 3 56 -18 51 -17 -3 -35 -32 -57 -88 -12 -30 -14 5 -9 275 3 181 9
315 14 322 6 7 8 20 4 28 -7 18 -55 20 -61 3z"/>
<path d="M4461 2417 c-12 -15 -45 -118 -61 -192 -6 -27 -36 -129 -68 -225
l-57 -175 -5 60 c-4 53 -8 60 -27 63 -18 3 -23 -2 -24 -20 -7 -203 -2 -226 51
-218 8 1 29 16 45 32 17 17 49 39 73 49 41 18 48 31 36 63 -8 21 -21 20 -51
-4 -14 -11 -29 -20 -32 -20 -4 0 15 64 41 143 26 78 62 198 79 267 17 69 37
132 43 140 7 8 11 23 9 33 -5 20 -36 23 -52 4z"/>
<path d="M4539 1746 c-74 -77 -83 -90 -75 -120 10 -40 119 -86 156 -66 16 9
18 15 10 30 -6 11 -18 20 -26 20 -8 0 -12 5 -9 10 3 6 40 10 81 10 78 0 114
11 114 34 0 29 -25 34 -125 26 -55 -5 -102 -6 -105 -3 -3 3 17 25 44 49 31 28
46 50 42 59 -11 30 -45 14 -107 -49z"/>
<path d="M4120 1368 c-85 -14 -171 -20 -328 -21 -176 -2 -214 -5 -223 -17 -15
-22 -4 -160 14 -178 12 -11 39 -14 120 -13 128 2 112 28 136 -224 10 -113 24
-315 36 -520 11 -177 39 -265 86 -265 12 0 19 -7 19 -20 0 -10 9 -24 21 -30
27 -15 49 3 49 42 0 25 2 27 19 19 10 -6 21 -7 25 -4 3 3 6 -3 6 -14 0 -11 7
-26 15 -33 21 -17 45 4 46 39 0 24 1 25 9 5 4 -12 16 -24 24 -27 26 -10 36 32
36 146 0 89 -22 414 -35 517 -2 19 -7 112 -10 206 l-6 171 108 7 c132 8 145
18 139 106 -2 30 -5 63 -5 72 -1 25 -33 39 -68 29 -24 -7 -34 -5 -47 10 -19
23 -37 23 -186 -3z"/>
<path d="M203 1368 c-6 -7 -14 -26 -17 -43 -11 -61 -35 -146 -43 -158 -5 -7
-7 -40 -5 -74 3 -54 8 -67 33 -90 19 -18 84 -138 180 -331 82 -166 149 -305
149 -308 0 -3 -21 -33 -47 -67 -27 -33 -53 -68 -59 -76 -10 -13 -16 -11 -45
13 -116 94 -200 156 -213 156 -26 0 -27 18 -7 112 32 150 23 239 -22 205 -9
-6 -32 -50 -50 -97 -29 -72 -34 -99 -36 -173 -1 -70 2 -89 14 -93 8 -4 21 -1
29 5 11 9 27 -2 80 -53 65 -64 181 -161 244 -205 39 -27 77 -25 77 4 1 12 10
30 22 42 19 19 23 20 49 7 35 -19 53 -12 84 32 52 75 96 117 151 145 32 16 61
33 64 39 12 19 -16 41 -44 35 -25 -5 -29 0 -88 132 -34 76 -92 210 -128 298
-37 88 -75 174 -85 190 -10 17 -25 56 -34 87 -9 32 -19 63 -21 70 -4 10 18 13
100 13 58 0 105 -2 105 -5 0 -3 16 -30 35 -59 20 -30 33 -56 30 -60 -3 -3 -20
-10 -38 -16 -42 -13 -45 -48 -5 -53 21 -3 27 -9 30 -30 2 -15 10 -28 19 -30 8
-1 49 24 90 56 41 32 79 57 86 55 15 -5 46 54 39 73 -3 8 -15 14 -26 14 -11 0
-20 5 -20 10 0 6 -6 10 -12 10 -7 0 -37 27 -66 60 -46 52 -50 59 -33 65 25 8
33 31 16 45 -8 7 -96 13 -242 17 -170 5 -231 10 -238 19 -15 20 -89 29 -102
12z m345 -850 c6 -23 10 -43 8 -45 -1 -1 -14 22 -29 53 -24 48 -25 53 -8 45
10 -6 23 -29 29 -53z m112 -152 c0 -2 -7 -9 -15 -16 -13 -11 -14 -10 -9 4 5
14 24 23 24 12z m-225 -226 c3 -6 -1 -7 -9 -4 -18 7 -21 14 -7 14 6 0 13 -4
16 -10z"/>
<path d="M1902 1339 c-12 -15 -22 -35 -22 -45 0 -33 -51 -289 -76 -379 -38
-143 -85 -445 -91 -599 -6 -127 -4 -140 12 -152 30 -23 45 0 47 75 l2 66 3
-56 c3 -46 8 -58 23 -62 17 -4 20 -16 22 -93 3 -80 5 -89 23 -92 15 -2 25 9
43 45 12 26 23 62 23 78 1 29 1 29 8 -5 4 -20 11 -41 15 -48 9 -14 42 -16 51
-2 4 6 13 5 25 -2 14 -9 22 -9 33 0 11 10 15 71 20 324 3 172 8 320 11 328 5
12 23 14 102 10 l96 -5 24 -90 c13 -49 35 -139 49 -200 51 -228 74 -305 93
-305 14 0 32 24 32 41 0 31 34 27 50 -6 13 -26 20 -30 49 -27 56 4 64 17 58
92 -4 51 -3 57 4 30 37 -140 64 -180 93 -138 10 14 12 27 6 38 -23 44 -159
556 -175 660 -18 122 -79 411 -96 456 -11 28 -28 59 -38 68 -26 23 -65 17 -69
-10 -2 -17 -8 -20 -30 -16 -15 2 -31 8 -37 12 -18 13 -147 30 -255 33 -104 2
-106 2 -128 -24z m462 -98 c-2 -2 -10 2 -19 9 -12 10 -13 16 -3 28 11 13 13
11 19 -9 3 -13 4 -26 3 -28z m-184 -35 c0 -3 9 -58 20 -123 11 -65 20 -121 20
-125 0 -5 -29 -8 -65 -8 l-65 0 0 53 c0 30 3 88 6 130 l7 77 38 0 c22 0 39 -2
39 -4z m54 -411 c4 -12 -5 -15 -52 -15 -31 0 -68 4 -82 8 -22 6 -19 8 20 13
82 11 108 10 114 -6z"/>
<path d="M1280 1330 c-18 -18 -31 -20 -138 -18 -129 3 -166 -7 -160 -45 4 -27
31 -34 168 -42 107 -7 110 -8 104 -29 -4 -11 -11 -37 -15 -56 -12 -51 -11
-416 2 -550 6 -63 10 -194 10 -291 -1 -147 1 -178 14 -189 29 -24 45 -5 45 58
0 55 16 112 33 112 4 0 7 -22 7 -49 0 -37 6 -55 25 -77 14 -16 30 -35 36 -42
15 -18 39 3 39 33 0 16 6 21 23 21 l22 -1 0 205 c-1 113 -4 350 -8 528 l-8
322 36 0 c38 0 55 20 37 43 -8 9 0 13 33 15 31 1 44 -2 49 -13 7 -20 42 -19
50 1 12 30 6 62 -12 66 -9 3 -86 0 -169 -5 -136 -10 -154 -9 -177 6 -25 16
-27 16 -46 -3z"/>
<path d="M2751 1320 c-21 -8 -48 -22 -61 -31 l-24 -16 22 -114 c11 -63 26
-159 32 -214 6 -55 15 -136 20 -180 5 -44 16 -143 25 -220 32 -275 47 -380 56
-390 5 -5 9 -20 9 -32 0 -37 29 -85 48 -81 14 3 18 18 23 78 3 41 7 59 8 40 5
-58 16 -85 34 -84 11 1 17 -6 17 -20 0 -33 13 -45 50 -48 l35 -3 -3 115 c-2
117 -12 227 -38 425 -21 162 -23 158 42 95 30 -30 79 -91 109 -135 56 -82 205
-267 278 -344 45 -47 140 -121 156 -121 21 0 21 69 -1 97 -7 9 -6 15 5 19 49
18 21 57 -119 165 -71 55 -132 114 -197 192 -52 62 -122 141 -156 177 -33 36
-57 66 -53 67 10 3 208 31 267 38 28 4 54 10 60 16 5 5 19 9 32 9 12 0 27 8
32 18 5 10 12 80 16 157 6 118 5 145 -9 170 -9 17 -16 37 -16 46 0 23 -24 41
-44 33 -9 -3 -16 -2 -16 4 0 13 -56 35 -95 38 -16 2 -86 7 -155 13 -69 5 -141
14 -160 19 -61 18 -187 19 -229 2z m169 -155 c0 -14 -2 -25 -4 -25 -2 0 -6 11
-8 25 -3 14 -1 25 3 25 5 0 9 -11 9 -25z m261 5 l86 0 6 -117 c3 -75 11 -131
21 -155 l16 -37 -53 -10 c-28 -6 -100 -12 -159 -14 l-108 -3 0 174 0 175 53
-7 c28 -3 91 -6 138 -6z"/>
</g>
</svg>
