<?xml version="1.0" standalone="no"?>
<!DOCTYPE svg PUBLIC "-//W3C//DTD SVG 20010904//EN"
 "http://www.w3.org/TR/2001/REC-SVG-20010904/DTD/svg10.dtd">
<svg version="1.0" xmlns="http://www.w3.org/2000/svg"
 width="94.000000pt" height="99.000000pt" viewBox="0 0 94.000000 99.000000"
 preserveAspectRatio="xMidYMid meet">
<metadata>
Created by potrace 1.16, written by Peter Selinger 2001-2019
</metadata>
<g transform="translate(0.000000,99.000000) scale(0.100000,-0.100000)"
fill="currentColor" stroke="none">
<path d="M373 976 c-202 -66 -351 -333 -369 -660 -10 -162 0 -222 41 -263 29
-29 39 -33 87 -33 44 0 63 5 94 28 21 16 45 36 53 45 24 30 49 20 81 -32 32
-52 49 -61 118 -61 53 0 99 20 137 60 16 17 34 30 40 30 6 0 30 -20 53 -45 56
-60 91 -61 154 -5 56 49 78 109 78 212 -1 171 -33 313 -101 456 -86 177 -205
272 -352 278 -44 3 -89 -2 -114 -10z m217 -72 c83 -45 146 -117 200 -229 60
-123 77 -186 91 -340 14 -149 5 -193 -53 -248 l-41 -39 -51 51 c-66 66 -85 66
-166 1 -47 -37 -71 -50 -96 -50 -31 0 -64 21 -64 40 0 5 -12 22 -26 39 -22 27
-32 31 -76 31 -45 0 -55 -4 -100 -45 -80 -72 -124 -59 -146 43 -33 151 18 417
109 566 62 104 158 185 242 207 51 13 124 2 177 -27z"/>
<path d="M568 607 c-27 -24 -48 -50 -48 -59 0 -8 28 -34 63 -57 56 -37 63 -39
75 -24 18 24 16 28 -27 56 l-40 26 30 32 c31 33 35 62 9 66 -8 1 -36 -17 -62
-40z"/>
<path d="M264 605 c-8 -19 3 -34 33 -46 l26 -10 -22 -23 c-16 -17 -21 -31 -16
-45 8 -25 39 -28 57 -5 7 9 23 27 36 41 31 33 21 60 -31 84 -51 22 -76 24 -83
4z"/>
<path d="M420 465 c-26 -32 27 -94 70 -80 27 9 52 48 44 69 -8 20 -23 20 -45
0 -16 -14 -18 -14 -29 5 -13 25 -23 26 -40 6z"/>
</g>
</svg>
