<?xml version="1.0" standalone="no"?>
<!DOCTYPE svg PUBLIC "-//W3C//DTD SVG 20010904//EN"
 "http://www.w3.org/TR/2001/REC-SVG-20010904/DTD/svg10.dtd">
<svg version="1.0" xmlns="http://www.w3.org/2000/svg"
 width="94.000000pt" height="99.000000pt" viewBox="0 0 94.000000 99.000000"
 preserveAspectRatio="xMidYMid meet">
<metadata>
Created by potrace 1.16, written by Peter Selinger 2001-2019
</metadata>
<g transform="translate(0.000000,99.000000) scale(0.100000,-0.100000)"
fill="currentColor" stroke="none">
<path d="M373 976 c-202 -66 -351 -333 -369 -660 -10 -162 0 -222 41 -263 29
-29 39 -33 87 -33 44 0 63 5 94 28 21 16 45 36 53 45 24 30 49 20 81 -32 32
-52 49 -61 118 -61 53 0 99 20 137 60 16 17 34 30 40 30 6 0 30 -20 53 -45 54
-59 90 -61 151 -8 60 51 81 105 81 206 -1 180 -31 320 -101 465 -86 177 -205
272 -352 278 -44 3 -89 -2 -114 -10z m217 -72 c83 -45 146 -117 200 -229 60
-123 77 -186 91 -340 14 -149 5 -193 -53 -248 l-41 -39 -51 51 c-66 66 -85 66
-166 1 -47 -37 -71 -50 -96 -50 -31 0 -64 21 -64 40 0 5 -12 22 -26 39 -22 27
-32 31 -76 31 -45 0 -55 -4 -100 -45 -80 -72 -124 -59 -146 43 -33 151 18 417
109 566 62 104 158 185 242 207 51 13 124 2 177 -27z"/>
<path d="M536 628 c-25 -41 -29 -79 -10 -99 37 -41 71 -16 76 56 2 27 -3 41
-17 51 -26 19 -32 18 -49 -8z"/>
<path d="M322 618 c-6 -6 -12 -33 -12 -60 0 -38 4 -50 21 -59 26 -14 45 2 58
48 16 55 -32 106 -67 71z"/>
<path d="M376 434 c-8 -22 -9 -21 16 -44 45 -42 168 -15 168 37 0 18 -6 23
-26 23 -14 0 -32 -7 -40 -15 -9 -8 -24 -15 -34 -15 -10 0 -25 7 -34 15 -19 20
-42 19 -50 -1z"/>
</g>
</svg>
