<?xml version="1.0" standalone="no"?>
<!DOCTYPE svg PUBLIC "-//W3C//DTD SVG 20010904//EN"
 "http://www.w3.org/TR/2001/REC-SVG-20010904/DTD/svg10.dtd">
<svg version="1.0" xmlns="http://www.w3.org/2000/svg"
 width="94.000000pt" height="99.000000pt" viewBox="0 0 94.000000 99.000000"
 preserveAspectRatio="xMidYMid meet">
<metadata>
Created by potrace 1.16, written by Peter Selinger 2001-2019
</metadata>
<g transform="translate(0.000000,99.000000) scale(0.100000,-0.100000)"
fill="currentColor" stroke="none">
<path d="M373 976 c-202 -66 -351 -333 -369 -660 -10 -162 0 -222 41 -263 29
-29 39 -33 87 -33 44 0 63 5 94 28 21 16 45 36 53 45 24 30 49 20 81 -32 32
-52 49 -61 118 -61 53 0 99 20 137 60 16 17 34 30 40 30 6 0 30 -20 53 -45 54
-59 90 -61 151 -8 60 51 81 105 81 206 -1 180 -31 320 -101 465 -86 177 -205
272 -352 278 -44 3 -89 -2 -114 -10z m217 -72 c83 -45 146 -117 200 -229 60
-123 77 -186 91 -340 14 -149 5 -193 -53 -248 l-41 -39 -51 51 c-66 66 -85 66
-166 1 -47 -37 -71 -50 -96 -50 -31 0 -64 21 -64 40 0 5 -12 22 -26 39 -22 27
-32 31 -76 31 -45 0 -55 -4 -100 -45 -80 -72 -124 -59 -146 43 -33 151 18 417
109 566 62 104 158 185 242 207 51 13 124 2 177 -27z"/>
<path d="M543 653 c-18 -7 -16 -34 4 -63 10 -13 17 -34 18 -45 0 -16 7 -20 32
-21 18 -1 39 -7 47 -13 32 -26 51 23 21 53 -17 17 -20 46 -4 46 6 0 9 10 7 23
-4 30 -44 36 -53 8 -8 -26 -21 -27 -35 -1 -11 20 -16 22 -37 13z"/>
<path d="M365 628 c-15 -21 -17 -22 -26 -5 -12 21 -32 22 -49 2 -11 -13 -9
-21 9 -46 l23 -31 -21 -22 c-25 -27 -26 -39 -5 -57 14 -11 20 -9 44 17 24 27
29 29 45 18 14 -10 22 -11 32 -3 18 16 16 36 -4 47 -14 8 -15 14 -3 41 10 25
10 34 0 46 -17 20 -26 19 -45 -7z"/>
<path d="M495 478 c-31 -18 -44 -40 -45 -75 0 -63 68 -86 115 -38 61 60 2 154
-70 113z m39 -63 c-4 -8 -13 -15 -21 -15 -13 0 -13 3 -3 15 7 8 16 15 21 15 5
0 6 -7 3 -15z"/>
</g>
</svg>
