<?xml version="1.0" standalone="no"?>
<!DOCTYPE svg PUBLIC "-//W3C//DTD SVG 20010904//EN"
 "http://www.w3.org/TR/2001/REC-SVG-20010904/DTD/svg10.dtd">
<svg version="1.0" xmlns="http://www.w3.org/2000/svg"
 width="343.000000pt" height="130.000000pt" viewBox="0 0 343.000000 130.000000"
 preserveAspectRatio="xMidYMid meet">
<metadata>
Created by potrace 1.16, written by Peter Selinger 2001-2019
</metadata>
<g transform="translate(0.000000,130.000000) scale(0.100000,-0.100000)"
fill="currentColor" stroke="none">
<path d="M2136 1291 c-11 -17 -159 -124 -200 -145 -22 -12 -70 -55 -105 -96
-36 -41 -73 -78 -82 -82 -23 -9 -33 -43 -20 -67 6 -11 11 -29 11 -40 0 -12 5
-21 10 -21 6 0 10 -7 10 -15 0 -8 6 -15 13 -15 14 0 47 -54 47 -76 0 -8 7 -17
16 -21 8 -3 27 -27 43 -54 28 -50 110 -143 150 -171 27 -19 22 -32 -40 -104
-22 -25 -56 -78 -75 -116 l-35 -70 -51 101 c-55 112 -65 118 -134 85 -27 -13
-34 -22 -34 -45 0 -16 4 -29 8 -29 5 0 14 -11 20 -25 35 -76 212 -255 253
-255 10 0 19 -7 19 -15 0 -25 55 -19 67 8 6 12 37 54 69 94 33 39 68 87 80
105 39 63 184 267 194 273 6 3 10 17 10 31 0 31 -43 51 -76 35 -29 -13 -44 3
-44 46 0 29 -4 34 -29 39 -30 6 -70 49 -131 139 -19 28 -47 64 -63 81 -16 18
-29 35 -29 39 0 4 39 49 88 102 l87 94 27 -43 c27 -44 128 -128 153 -128 7 0
19 6 26 13 10 10 16 8 31 -10 20 -26 40 -29 58 -11 19 19 15 31 -30 80 -57 61
-114 129 -149 177 -15 22 -44 52 -63 68 -20 15 -36 34 -36 41 0 14 -56 17 -64
3z m-141 -586 l67 -100 -54 55 c-71 74 -101 117 -94 137 8 19 1 28 81 -92z
m205 -238 c0 -2 -10 -12 -21 -23 -22 -19 -22 -19 -8 4 12 19 29 30 29 19z"/>
<path d="M166 1261 c-9 -9 -16 -22 -16 -28 0 -5 -11 -15 -24 -21 -24 -11 -27
-22 -44 -197 -8 -81 -9 -603 -2 -719 l5 -79 -32 -11 c-43 -15 -56 -30 -48 -55
4 -14 15 -21 30 -21 22 0 24 -3 19 -29 -5 -24 -2 -30 23 -40 15 -6 43 -20 62
-32 20 -12 40 -17 50 -13 9 4 26 8 39 10 13 1 29 7 35 13 14 11 64 8 122 -7
22 -6 51 -10 65 -10 14 0 75 -2 136 -6 121 -7 142 1 131 45 -3 12 0 22 8 25 8
3 20 16 29 28 12 19 12 27 2 47 -12 24 -13 24 -176 25 -91 1 -174 2 -185 3
-20 1 -20 8 -19 349 2 336 7 489 20 569 6 42 -13 70 -41 60 -10 -5 -17 3 -23
26 -7 27 -13 32 -36 30 -36 -3 -58 -21 -51 -44 3 -9 1 -20 -5 -24 -11 -7 -11
-7 -15 45 -2 19 -3 40 -4 47 -1 7 -9 17 -20 22 -14 8 -22 6 -35 -8z"/>
<path d="M2768 1263 l-37 -4 2 -152 c1 -84 -2 -195 -6 -247 -17 -196 -28 -406
-30 -573 -2 -101 -5 -120 -19 -128 -18 -10 -25 -48 -10 -50 4 0 18 -3 32 -5
46 -9 493 -5 519 4 14 6 45 15 69 21 39 11 42 14 42 45 0 42 -13 48 -87 36
-62 -10 -249 -7 -260 4 -4 3 2 55 12 114 19 115 33 218 39 296 2 27 10 52 17
57 8 5 43 9 79 10 147 2 261 17 282 36 23 21 23 32 -4 54 -25 22 -56 25 -64 5
-3 -7 -15 -12 -27 -11 -12 1 -80 3 -150 4 -71 0 -126 5 -123 10 7 11 15 98 22
246 4 66 7 121 8 122 1 1 55 5 121 8 151 8 165 11 165 34 0 46 -43 54 -305 53
-125 -1 -189 2 -225 10 -14 3 -42 3 -62 1z"/>
<path d="M1145 1230 c-59 -6 -145 -48 -145 -70 0 -6 -8 -10 -18 -10 -41 0
-135 -143 -158 -240 -53 -229 -57 -268 -43 -440 9 -118 12 -130 55 -220 25
-52 49 -97 53 -100 4 -3 17 -22 30 -43 15 -24 41 -47 73 -63 45 -23 58 -25
122 -20 112 10 152 24 207 73 27 25 49 51 49 58 0 8 16 41 35 74 19 32 35 64
35 71 0 6 11 33 25 60 14 27 25 60 25 74 0 14 5 37 11 52 14 40 20 94 20 209
0 108 -16 251 -29 269 -5 6 -14 31 -21 56 -31 106 -93 176 -173 195 -29 6 -62
14 -73 17 -11 3 -47 2 -80 -2z m113 -235 c11 -13 24 -37 30 -52 11 -29 34
-286 27 -306 -2 -7 -6 -35 -8 -62 -3 -28 -12 -68 -21 -89 -9 -21 -16 -48 -16
-59 0 -27 -68 -87 -100 -88 -14 0 -42 -2 -62 -4 -31 -3 -41 1 -62 26 -43 51
-56 138 -42 284 12 120 81 268 169 362 33 36 50 33 85 -12z m-100 -832 c-10
-2 -26 -2 -35 0 -10 3 -2 5 17 5 19 0 27 -2 18 -5z"/>
</g>
</svg>
